<svg width="500" height="500" viewBox="0 0 500 500" fill="none" xmlns="http://www.w3.org/2000/svg">
<g clip-path="url(#clip0_93_7518)">
<path opacity="0.24" d="M496.02 329.77C493.58 349.28 487.32 368.12 477.59 385.21C460.42 415.03 431.86 438.4 398.8 447.91C358.26 459.57 314.76 450.3 274.43 437.89C234.09 425.48 193.91 409.78 151.72 408.56C125.06 407.76 97.76 412.76 72.03 405.64C45.82 398.4 24.24 378.15 13.17 353.32C9.53003 345.3 7.05003 336.81 5.81003 328.09C2.86003 307.01 6.68003 285.66 8.61003 264.47C10.82 240.64 10.67 216.53 15.89 193.19C21.11 169.85 32.59 146.71 52.68 133.74C94.92 106.49 153.18 134.52 200.46 117.41C232.51 105.84 257.22 74.21 291.27 72.99C333.93 71.47 403.66 108.77 430.77 141.2C446.6 160.13 457.57 182.61 467.91 205.03C479.87 230.91 491.32 257.48 495.58 285.65C497.77 300.27 497.92 315.13 496.04 329.79L496.02 329.77Z" fill="#B6C4FF"/>
<path opacity="0.24" d="M496.02 329.77C493.58 349.28 487.32 368.12 477.59 385.21C460.42 415.03 431.86 438.4 398.8 447.91C358.26 459.57 314.76 450.3 274.43 437.89C234.09 425.48 193.91 409.78 151.72 408.56C125.06 407.76 97.76 412.76 72.03 405.64C45.82 398.4 24.24 378.15 13.17 353.32C14.26 352.16 15.44 351.09 16.69 350.11C39.94 331.92 76.23 337.14 103.3 330.01C121.51 325.21 138.03 315.58 154.9 307.2C196.34 286.59 240.93 273.03 286.82 267.08C309.63 264.13 333.54 263.2 354.85 271.94C387.65 285.35 411.46 320.39 446.82 322.68C456.36 323.31 465.9 321.37 475.44 321.88C482.88 322.3 490.81 324.69 496.02 329.78V329.77Z" fill="#B6C4FF"/>
<path d="M385.7 245.2H417.8C420.9 238.8 421.5 231.5 421.7 224.4C421.9 217.9 421.7 211.3 419.7 205.1C414.4 188.7 397.2 179.2 380.4 183.5C378.4 181.2 375.7 179.5 372.8 178.8C369.9 178.2 361.5 179 361.4 181.9C361.4 182.8 361.7 183.7 362.2 184.5C365.1 189.9 369.6 194.4 373.2 199.4C381.7 211 383.2 229.3 385.7 245.2Z" fill="white"/>
<path d="M417.8 246H385.7C385.3 246 385 245.7 385 245.4C384.6 242.9 384.2 240.4 383.9 237.8C381.9 223.9 379.8 209.5 372.8 199.9C371.5 198.1 370.1 196.4 368.7 194.8C366.1 191.8 363.7 188.5 361.7 185C361.2 184.1 360.8 183.1 360.8 182.1C360.8 181.3 361.3 180.6 361.9 180.1C364.4 178.2 370.6 177.7 373.1 178.3C376.1 179 378.8 180.6 380.8 182.9C388.4 181.1 396.5 182 403.5 185.4C411.6 189.4 417.7 196.5 420.5 205C422.5 211.3 422.7 218.1 422.5 224.5C422.3 231.6 421.7 239.1 418.5 245.6C418.4 245.8 418.1 246 417.8 246ZM386.4 244.5H417.4C420.3 238.3 420.8 231.2 421 224.4C421.2 217.1 420.9 211.1 419.1 205.4C413.9 189.3 397.1 180.1 380.7 184.3C380.4 184.4 380.2 184.3 380 184.1C378.1 181.9 375.6 180.3 372.8 179.6C370.7 179.2 364.9 179.6 362.9 181.2C362.4 181.6 362.4 182 362.3 182.1C362.4 182.9 362.6 183.6 363 184.3C365 187.7 367.3 190.9 369.9 193.9C371.3 195.6 372.7 197.3 374 199.1C381.2 209 383.4 223.6 385.4 237.7C385.7 239.9 386 242.2 386.4 244.5Z" fill="#231F20"/>
<path d="M420.9 180.8C424.9 177.6 428.8 174.1 433.5 172.1C433.9 171.9 434.3 171.8 434.7 171.8C435.1 171.9 435.4 172.1 435.7 172.5C436.9 174 437.2 176 436.7 177.8C436.2 179.6 435.3 181.3 434.1 182.7C431.1 186.8 427.5 190.5 423.6 193.7C420.9 195.8 417.9 197.8 414.5 198.5C409.9 199.4 399.3 194.9 404 188.7C405.3 186.9 408.4 187.3 410.3 186.7C414.2 185.4 417.8 183.4 420.9 180.8Z" fill="white"/>
<path d="M413.2 199.3C409.7 199.3 404.8 197.4 403 194.4C402.1 193 401.5 190.8 403.5 188.2C404.6 186.7 406.6 186.5 408.3 186.3C408.9 186.2 409.6 186.1 410.2 186C414 184.8 417.4 182.8 420.4 180.2L422.6 178.4C425.8 175.8 429.2 173 433.1 171.3C433.6 171 434.2 170.9 434.8 171C435.4 171.1 435.9 171.4 436.3 171.9C437.7 173.6 438.1 175.8 437.5 177.9C436.9 179.8 436 181.5 434.8 183.1C431.7 187.3 428.2 191 424.1 194.2C421.7 196.1 418.5 198.4 414.7 199.1C414.2 199.3 413.7 199.3 413.2 199.3ZM421.4 181.4C418.2 184.1 414.6 186.1 410.7 187.4C410 187.6 409.3 187.7 408.6 187.8C407.1 188 405.5 188.2 404.8 189.2C403.6 190.8 403.5 192.3 404.3 193.7C406.1 196.5 411.5 198.4 414.5 197.8C418 197.1 421 194.9 423.3 193.2C427.2 190.1 430.7 186.4 433.7 182.3C434.8 180.9 435.7 179.4 436.2 177.7C436.7 176.1 436.4 174.4 435.3 173.1C435.1 172.9 434.9 172.8 434.7 172.7C434.4 172.7 434.1 172.8 433.9 172.9C430.2 174.5 426.9 177.2 423.7 179.7C422.9 180.2 422.1 180.8 421.4 181.4Z" fill="#231F20"/>
<path d="M189.3 148.5C186.9 137.8 183.7 127.2 182.8 116.2C181.9 105.2 183.3 93.7 189.5 84.6C192 81 195.4 77.7 199.6 76.5C203.3 75.4 209.6 77.5 209.6 77.5C212.6 75.3 215.8 73.2 219.1 71.3C226.1 67.8 234 66.6 241.7 65.8C252.7 64.7 265.4 65.3 272.4 73.9C277.5 80.2 278 88.9 278.2 97L278.7 117.8" fill="white"/>
<path d="M189.3 149.3C188.9 149.3 188.6 149.1 188.5 148.7C187.9 145.9 187.2 143.1 186.5 140.3C184.6 132.5 182.6 124.5 181.9 116.3C181.1 107.4 181.7 94.6 188.8 84.2C191.8 79.9 195.4 76.9 199.3 75.8C202.7 74.8 207.9 76.2 209.4 76.6C212.4 74.4 215.5 72.4 218.7 70.6C226.1 66.9 234.4 65.7 241.6 65C256.9 63.5 267.2 66.2 273 73.3C278.5 80.1 278.8 89.8 279 96.9L279.5 117.7C279.5 118.1 279.2 118.5 278.7 118.5C278.3 118.5 277.9 118.2 277.9 117.7L277.3 97C277.1 88.4 276.5 80.2 271.7 74.3C266.2 67.6 256.4 65.1 241.6 66.5C234.6 67.2 226.4 68.4 219.3 71.9C216.1 73.8 213 75.8 210 78C209.8 78.1 209.5 78.2 209.3 78.1C209.2 78.1 203.2 76.1 199.8 77.2C195.3 78.5 192.1 82.2 190.1 85C183.3 95 182.7 107.4 183.5 116.1C184.2 124.1 186.1 132.1 188 139.8C188.7 142.6 189.4 145.4 190 148.2C190.1 148.6 189.8 149 189.4 149.1L189.3 149.3Z" fill="#231F20"/>
<path d="M308.5 434.6C301.1 297.2 312.8 246 307 231.9C293.1 198.6 211.9 187.7 211.9 187.7C211.9 187.7 124 187.3 104.5 233.8C99.6001 245.5 65.7001 326.7 62.4001 376.8C60.7001 401.8 86.8001 396.8 109.4 398.9V434.7L308.5 434.6Z" fill="#E3BADB"/>
<path d="M253.8 249.6L247.1 258.8L273.1 368L257.7 399.1L235.1 368L238.3 259.6L228.6 248.4L242.6 237.4L253.8 249.6Z" fill="white"/>
<path d="M257.7 399.8C257.5 399.8 257.2 399.7 257.1 399.5L234.5 368.5C234.4 368.4 234.4 368.2 234.4 368L237.6 259.9L228.1 248.9C228 248.7 227.9 248.5 227.9 248.3C227.9 248.1 228 247.9 228.2 247.8L242.2 236.7C242.5 236.5 242.9 236.5 243.2 236.8L254.4 249.1C254.6 249.4 254.6 249.8 254.4 250.1L248 259L273.9 367.9C273.9 368.1 273.9 368.3 273.8 368.4L258.4 399.4C258.3 399.6 258.1 399.8 257.7 399.8ZM235.9 367.8L257.6 397.6L272.3 368L246.3 259C246.3 258.8 246.3 258.5 246.4 258.4L252.7 249.8L242.4 238.5L229.6 248.6L238.8 259.2C238.9 259.3 239 259.5 239 259.7L235.9 367.8Z" fill="#231F20"/>
<path d="M262.1 194.4L265.6 217.4C265.6 217.4 260.4 242.3 235.1 236.5C220.1 233 207.6 222.9 201 209L198.2 155.6C198.2 155.6 216.8 145.5 210.9 104.9C210.9 104.9 239.1 118.5 276.5 113.4C276.5 113.4 285.5 155.2 282.6 174.7C279.7 194.2 262.1 194.4 262.1 194.4Z" fill="white"/>
<path d="M242.5 238.1C240 238.1 237.5 237.8 235 237.2C209.6 231.3 200.4 209.5 200.3 209.3C200.3 209.2 200.2 209.1 200.2 209.1L197.4 155.7C197.4 155.4 197.5 155.1 197.8 155C198 154.9 215.9 144.5 210.1 105.1C210.1 104.8 210.2 104.5 210.4 104.4C210.6 104.2 210.9 104.2 211.2 104.3C211.5 104.4 239.6 117.8 276.4 112.7C276.8 112.6 277.2 112.9 277.3 113.3C277.7 115 286.3 155.4 283.5 174.9C281 192.3 266.7 194.8 263 195.2L266.4 217.3C266.4 217.4 266.4 217.5 266.4 217.6C266.3 218 263.9 228.9 254.9 234.7C251.2 237 246.9 238.2 242.5 238.1ZM201.8 208.8C202.5 210.5 211.7 230.2 235.3 235.7C242.6 237.4 248.9 236.6 254 233.4C262 228.3 264.5 218.6 264.8 217.4L261.3 194.6C261.3 194.4 261.3 194.2 261.5 194C261.6 193.8 261.9 193.7 262.1 193.7C262.8 193.7 279.2 193.3 281.9 174.7C284.5 156.9 277.1 119.9 275.9 114.3C243.4 118.5 217.8 108.7 211.8 106.2C216.7 142.8 201.7 154.3 198.9 156.1L201.8 208.8Z" fill="#231F20"/>
<path d="M249.1 137.8C249.1 137.8 261.1 159.8 257.5 163.1C253.9 166.4 244.8 163.2 244.8 163.2" fill="white"/>
<path d="M252.5 165.4C249.8 165.3 247.1 164.9 244.6 164C244.2 163.9 243.9 163.5 244 163.1C244.1 162.7 244.5 162.4 244.9 162.5C245 162.5 245 162.5 245.1 162.6C245.2 162.6 253.7 165.6 257 162.7C259.2 160.7 253.3 147.2 248.5 138.3C248.3 137.9 248.4 137.5 248.8 137.3C249.2 137.1 249.6 137.2 249.8 137.6C251.8 141.4 261.9 160.3 258 163.8C256.4 165 254.5 165.5 252.5 165.4Z" fill="#231F20"/>
<path d="M230.835 138.091C232.214 138.033 233.225 135.436 233.093 132.291C232.961 129.146 231.735 126.643 230.356 126.701C228.976 126.759 227.965 129.356 228.097 132.501C228.23 135.646 229.455 138.149 230.835 138.091Z" fill="#231F20"/>
<path d="M267.434 139.595C268.813 139.537 269.824 136.94 269.692 133.795C269.559 130.65 268.334 128.147 266.954 128.205C265.575 128.263 264.564 130.86 264.696 134.005C264.829 137.15 266.054 139.653 267.434 139.595Z" fill="#231F20"/>
<path d="M214.4 145.2C212.2 141.4 209.2 138 205.7 135.3C203.9 133.7 201.6 132.7 199.2 132.4C197.2 132.4 195.3 133 193.6 134C188.6 137 185.1 141.9 183.9 147.6C183.3 150.2 183.4 152.9 184.2 155.5C185.4 159.5 188.5 162.7 192.1 165C195.7 167.1 199.6 168.8 203.6 170" fill="white"/>
<path d="M203.6 170.9C203.5 170.9 203.4 170.9 203.4 170.9C199.3 169.7 195.4 168 191.7 165.8C187.9 163.6 185 160.1 183.5 155.9C182.7 153.2 182.6 150.4 183.2 147.6C184.4 141.7 188.1 136.5 193.3 133.4C195.1 132.3 197.2 131.7 199.3 131.6C202.1 131.7 204.6 133.4 206.2 134.6C209.8 137.4 212.8 140.8 215.1 144.7C215.3 145.1 215.2 145.5 214.9 145.8C214.5 146 214.1 145.9 213.8 145.6V145.5C211.6 141.8 208.7 138.5 205.3 135.9C203.9 134.8 201.7 133.3 199.3 133.2C197.5 133.2 195.7 133.8 194.2 134.8C189.4 137.6 185.9 142.4 184.8 147.9C184.3 150.4 184.4 153 185.1 155.4C186.5 159.2 189.2 162.4 192.7 164.4C196.3 166.5 200.1 168.1 204.1 169.3C204.5 169.4 204.7 169.9 204.6 170.3C204.3 170.7 204 170.9 203.6 170.9Z" fill="#231F20"/>
<path d="M262.1 194.4C262.1 194.4 242.1 198.8 219.7 187.4C219.7 187.4 241.3 220.6 265.4 216L262.1 194.4Z" fill="#231F20"/>
<path d="M260.8 217.2C252 217.2 242.5 212.7 233 204C227.8 199.1 223.1 193.7 219.1 187.8C218.9 187.5 218.9 187.1 219.2 186.9C219.4 186.6 219.8 186.6 220.1 186.7C242 197.8 261.8 193.7 262 193.6C262.2 193.6 262.4 193.6 262.6 193.7C262.8 193.8 262.9 194 262.9 194.2L266.2 215.8C266.3 216.2 266 216.6 265.6 216.7C264 217 262.4 217.2 260.8 217.2ZM222 189.4C227.4 196.7 245.3 218.6 264.6 215.4L261.5 195.3C248.1 197.1 234.3 195.1 222 189.4Z" fill="#231F20"/>
<path d="M262.9 170.1C262.9 170.1 237.1 190.1 226.9 151.3L262.9 170.1Z" fill="white"/>
<path d="M248.4 176C246.5 176 244.6 175.7 242.8 175.1C235.2 172.5 229.6 164.6 226.2 151.5C226.1 151.1 226.3 150.7 226.7 150.6C227.1 150.5 227.5 150.7 227.6 151.1C230.9 163.7 236.2 171.3 243.2 173.7C252.6 176.9 262.3 169.6 262.4 169.5C262.7 169.3 263.2 169.3 263.4 169.6C263.6 169.9 263.6 170.4 263.3 170.6C263 170.9 256.4 176 248.4 176Z" fill="#231F20"/>
<path d="M374.9 185.2C374.9 185.2 392.8 191.8 394.8 211.6L374.9 185.2Z" fill="white"/>
<path d="M394.8 212.3C394.4 212.3 394.1 212 394.1 211.6C392.2 192.6 374.9 185.9 374.7 185.9C374.3 185.8 374.1 185.3 374.2 184.9C374.3 184.5 374.8 184.3 375.2 184.5C375.4 184.6 393.6 191.5 395.6 211.5C395.6 211.9 395.3 212.3 394.9 212.3H394.8Z" fill="#231F20"/>
<path d="M294.5 216.4C294.5 216.4 369.2 286.5 370 282C374.9 253.2 378.9 228.7 378.9 228.7L427.7 230.7C427.7 230.7 427.7 368 394.9 371.3C370 373.8 283.4 292.7 283.4 292.7L294.5 216.4Z" fill="#E3BADB"/>
<path d="M307 405.5C306.6 405.5 306.3 405.2 306.2 404.8L292.3 241.5C292.3 241.1 292.6 240.7 293 240.7C293.4 240.7 293.8 241 293.8 241.4L307.7 404.7C307.8 405.1 307.5 405.5 307 405.5Z" fill="#231F20"/>
<path d="M193 402.1L96.4001 399C96.0001 399 95.6001 398.6 95.7001 398.2C95.7001 397.8 96.1001 397.5 96.5001 397.4L192.3 400.5L195 349.2L128.2 341.3C128 341.3 127.8 341.2 127.7 341C127.6 340.8 127.5 340.6 127.6 340.4C136.3 303.6 149.2 248 149.1 245.4C149 245 149.3 244.6 149.7 244.5C150.1 244.4 150.5 244.7 150.6 245.1C151.2 247.4 133.4 322.6 129.3 339.9L196 347.8C196.4 347.8 196.7 348.2 196.7 348.6L193.9 401.4C193.8 401.8 193.4 402.1 193 402.1Z" fill="#231F20"/>
<path d="M364.4 306.1H364.2C363.8 306 363.5 305.6 363.6 305.2L377 241.3C377.1 240.9 377.5 240.6 377.9 240.7C378.3 240.8 378.6 241.2 378.5 241.6L365.1 305.5C365 305.8 364.7 306.1 364.4 306.1Z" fill="#231F20"/>
<path d="M201.9 267.8C201.3 267.8 200.7 267.6 200.3 267.2C193.2 261.7 181 213.6 181.7 208.1C182.5 202 192.5 193.7 192.9 193.3C193.2 193 193.7 193.1 194 193.4C194.3 193.7 194.2 194.2 193.9 194.5C193.8 194.6 183.9 202.8 183.2 208.3C182.5 213.6 194.6 261 201.2 266C201.5 266.3 201.8 266.4 202 266.3C208 263.9 224.2 241.3 224.4 241.1C224.7 240.8 225.2 240.7 225.5 241C225.8 241.2 225.9 241.7 225.7 242C225 243 209.1 265.2 202.7 267.7C202.4 267.7 202.1 267.8 201.9 267.8Z" fill="#231F20"/>
<path d="M271.8 259.2H271.5C266.5 258.7 258.4 241.9 257.5 240C257.3 239.6 257.5 239.2 257.9 239C258.3 238.8 258.7 239 258.9 239.4C262.2 246.3 268.6 257.4 271.7 257.7C272 257.7 272.4 257.6 272.6 257.3C276.4 252.4 281.5 225.2 277.9 211.8C277.8 211.4 278 211 278.4 210.9C278.8 210.8 279.2 211 279.3 211.4C283.1 225.5 277.7 253 273.7 258.2C273.3 258.8 272.6 259.2 271.8 259.2Z" fill="#231F20"/>
<path d="M380.4 176.7L380.1 177.2C378.6 179.6 375.4 180.4 372.9 178.8L338 156.8L343.9 147.5L378.8 169.5C381.2 171.1 381.9 174.3 380.4 176.7Z" fill="white"/>
<path d="M375.6 180.4C374.5 180.4 373.4 180.1 372.4 179.5L337.5 157.5C337.3 157.4 337.2 157.2 337.2 157C337.2 156.8 337.2 156.6 337.3 156.4L343.2 147.1C343.4 146.8 343.9 146.7 344.2 146.9L379.1 168.9C381.9 170.6 382.7 174.3 381 177.1L380.7 177.7C379.5 179.3 377.7 180.4 375.6 180.4ZM339 156.6L373.2 178.2C375.3 179.5 378 178.9 379.3 176.8L379.6 176.3C380.9 174.2 380.3 171.5 378.2 170.2L344 148.6L339 156.6Z" fill="#231F20"/>
<path d="M340.198 141.191L330.702 156.246L339.16 161.581L348.656 146.526L340.198 141.191Z" fill="white"/>
<path d="M339.1 162.3C339 162.3 338.8 162.3 338.7 162.2L330.2 156.9C329.9 156.7 329.8 156.2 330 155.9L339.5 140.8C339.7 140.5 340.2 140.4 340.5 140.6L349 145.9C349.2 146 349.3 146.2 349.3 146.4C349.3 146.6 349.3 146.8 349.2 147L339.7 162.1C339.6 162.3 339.4 162.4 339.2 162.4L339.1 162.3ZM331.7 156L338.9 160.6L347.6 146.8L340.4 142.3L331.7 156Z" fill="#231F20"/>
<path d="M428.2 204.2L425.4 208.6C423.5 211.5 419.7 212.4 416.7 210.6L368.1 179.9C365.2 178 364.3 174.2 366.1 171.2L368.9 166.8C370.8 163.9 374.6 163 377.6 164.8L426.2 195.5C429.2 197.3 430 201.2 428.2 204.2Z" fill="white"/>
<path d="M420.1 212.2C418.8 212.2 417.5 211.8 416.4 211.1L367.8 180.4C364.5 178.4 363.5 174 365.6 170.8C365.6 170.8 365.6 170.8 365.6 170.7L368.4 166.3C370.5 163 374.8 162 378.1 164.1L426.7 194.8C430 196.8 431 201.2 428.9 204.4C428.9 204.4 428.9 204.4 428.9 204.5L426 209C425 210.6 423.4 211.7 421.6 212.1C421.1 212.2 420.6 212.3 420.1 212.2ZM374.2 164.6C372.3 164.6 370.5 165.6 369.5 167.2L366.7 171.6C365.1 174.2 365.8 177.6 368.4 179.2L417 209.9C419.6 211.5 423 210.8 424.6 208.2L427.4 203.8C429 201.2 428.3 197.8 425.7 196.2L377.1 165.5C376.3 164.9 375.3 164.6 374.2 164.6Z" fill="#231F20"/>
<path d="M261.1 101.8C247.2 123.9 253.8 153.1 275.9 167C298 180.9 327.2 174.3 341.1 152.2C355 130.1 348.4 100.9 326.3 87C304.2 73.1 275 79.7 261.1 101.8Z" fill="white"/>
<path d="M301 175.1C274.5 175.1 253 153.6 253 127.1C253 118 255.6 109.1 260.4 101.5C274.6 79.1 304.2 72.4 326.6 86.6C349 100.8 355.7 130.4 341.5 152.8C332.8 166.7 317.5 175.1 301 175.1ZM261.7 102.2C248 123.9 254.5 152.7 276.2 166.4C297.9 180.1 326.7 173.6 340.4 151.9C354.1 130.2 347.6 101.4 325.9 87.7C315.5 81.1 302.8 78.9 290.8 81.7C278.8 84.4 268.3 91.8 261.7 102.2Z" fill="#231F20"/>
<path d="M321 95.4C338.5 106.4 343.7 129.5 332.7 147C321.7 164.5 298.6 169.7 281.1 158.7C263.6 147.7 258.4 124.6 269.4 107.1C280.4 89.6 303.5 84.4 321 95.4Z" fill="white"/>
<path d="M301 165.2C279.9 165.1 262.9 148 262.9 127C263 105.9 280.1 88.9 301.1 88.9C308.3 88.9 315.3 91 321.4 94.8C339.2 106 344.6 129.6 333.3 147.4C326.4 158.5 314.1 165.3 301 165.2ZM301.1 90.4C280.8 90.3 264.4 106.7 264.3 127C264.2 147.3 280.6 163.7 300.9 163.8C321.2 163.9 337.6 147.5 337.7 127.2C337.7 114.6 331.3 102.8 320.6 96.1C314.8 92.4 308 90.4 301.1 90.4Z" fill="#D1D3D4"/>
<path d="M279.1 127.5C279.4 127.1 279.7 126.7 280.1 126.4C281.3 125.3 282.5 124.2 283.7 123.1C284.2 122.4 285.2 122.3 285.8 122.8C285.9 122.9 286 123 286.1 123.1L295.3 132.5C296.2 133.4 297 133.5 297.9 132.5L319.5 111C320.5 110 321.2 110 322.1 111C323.4 112.3 324.6 113.5 325.9 114.8C326.6 115.3 326.7 116.3 326.2 116.9C326.1 117 326 117.1 325.9 117.2L297.8 145.3C297.3 145.9 296.4 146.1 295.7 145.6C295.6 145.5 295.5 145.4 295.4 145.3C290.1 139.9 284.8 134.4 279.6 128.9C279.4 128.6 279.2 128.4 279.1 128.1V127.5Z" fill="#231F20"/>
<path d="M296.7 146.7C296 146.7 295.4 146.4 295 145.9C289.7 140.5 284.4 135 279.2 129.5C279 129.3 278.8 129 278.7 128.8L278.6 128.6C278.5 128.5 278.5 128.3 278.5 128.2V127.5C278.5 127.3 278.6 127.2 278.7 127L279 126.7C279.2 126.4 279.5 126.1 279.7 125.9C280.6 125.1 281.4 124.3 282.3 123.6L283.3 122.7C284.1 121.8 285.5 121.7 286.5 122.5C286.6 122.6 286.7 122.7 286.8 122.8L296 132.2C296.2 132.4 296.5 132.6 296.8 132.7C297.1 132.6 297.4 132.5 297.6 132.2L319.2 110.7C319.7 110.2 320.3 109.8 321 109.8C321.7 109.9 322.4 110.2 322.8 110.7L326.6 114.5C327.6 115.3 327.7 116.7 326.9 117.7C326.8 117.8 326.7 117.9 326.6 118L298.5 146.1C297.9 146.4 297.3 146.7 296.7 146.7ZM279.9 128L280 128.1C280.1 128.2 280.2 128.4 280.3 128.5C285.6 134 290.8 139.4 296.1 144.9C296.3 145.1 296.5 145.2 296.7 145.3C296.9 145.3 297.2 145.1 297.3 144.9L325.4 116.8C325.9 116.3 325.9 116 325.4 115.4L321.6 111.6C321.4 111.4 321.1 111.2 320.8 111.1C320.5 111.2 320.2 111.3 320 111.6L298.4 133.1C297.9 133.6 297.3 134 296.6 134C295.9 133.9 295.2 133.6 294.8 133.1L285.6 123.7C285 123.1 284.8 123.1 284.2 123.7L283.2 124.6C282.3 125.4 281.5 126.1 280.6 126.9C280.4 127.1 280.2 127.3 280 127.6L279.9 127.8V128Z" fill="#231F20"/>
<path d="M258.3 295.6L349.4 312.3L323.4 434.6L228.6 423.6L258.3 295.6Z" fill="#231F20"/>
<path d="M323.4 435.4L228.5 424.4C228.1 424.4 227.8 424 227.8 423.6V423.5L257.5 295.5C257.6 295.1 258 294.9 258.4 294.9L349.5 311.6C349.7 311.6 349.9 311.7 350 311.9C350.1 312.1 350.1 312.3 350.1 312.5L324.1 434.8C324 435.1 323.8 435.3 323.4 435.4ZM229.5 423L322.8 433.8L348.5 313L258.9 296.6L229.5 423Z" fill="#231F20"/>
<path d="M283.3 303.6L287.5 293.8L327 300.8V311.1L283.3 303.6Z" fill="#231F20"/>
<path d="M327 311.9H326.9L283.2 304.4C282.8 304.3 282.5 303.9 282.6 303.5V303.4L286.8 293.6C286.9 293.3 287.3 293.1 287.6 293.2L327.1 300.2C327.5 300.3 327.7 300.6 327.7 300.9V311.2C327.7 311.4 327.6 311.6 327.4 311.8C327.3 311.9 327.2 311.9 327 311.9ZM284.3 303.1L326.2 310.3V301.5L288 294.7L284.3 303.1Z" fill="#231F20"/>
<path d="M394.7 190.7C396.3 189.9 396.7 187.9 396.8 186.1C396.9 182.7 396.3 179.4 395.1 176.2L401 189.1C402.1 191.6 403.3 194.2 405.3 196.1C407.3 198 410.4 199 412.9 197.9C416.6 196.3 417.2 191.3 416.7 187.4C416.2 183.7 415.3 180.1 413.8 176.6C412.5 173.6 410.7 170.6 407.9 168.9C405.1 167.2 401.1 167 398.8 169.3C396.3 165.4 390.9 158.3 385.3 159.7C381.6 160.6 382 162.7 382.8 166.1C383.7 170.8 388.1 193.8 394.7 190.7Z" fill="white"/>
<path d="M410.7 199.1C408.5 199 406.4 198.1 404.8 196.6C402.7 194.6 401.4 191.8 400.3 189.4L397.4 183.2C397.5 184.2 397.5 185.1 397.5 186.1C397.4 188.8 396.5 190.6 395 191.3C394 191.8 392.9 191.8 391.9 191.3C387.4 189.1 384.4 177.4 382.3 167.5L382 166.3C381.3 163.1 380.6 160.1 385.1 159C389.4 157.9 394.2 161.1 399 168.2C401.8 166.2 405.8 166.7 408.3 168.3C410.8 169.9 412.8 172.5 414.5 176.3C416 179.8 417 183.5 417.5 187.3C417.8 189.4 418.3 196.4 413.3 198.6C412.4 199 411.6 199.2 410.7 199.1ZM395.1 175.5C395.4 175.5 395.7 175.7 395.8 175.9L401.7 188.8C402.7 191.1 403.9 193.7 405.9 195.5C407.6 197.1 410.3 198.2 412.7 197.2C416.7 195.4 416.2 189.3 416 187.4C415.5 183.8 414.6 180.2 413.1 176.8C411.6 173.2 409.7 170.8 407.5 169.5C405.3 168.2 401.5 167.7 399.3 169.8C399.1 170 398.9 170 398.7 170C398.5 170 398.3 169.9 398.2 169.7C395 164.8 390.2 159.3 385.5 160.4C382.6 161.1 382.7 162.4 383.5 165.9L383.8 167.1C384.9 172.2 388.2 187.7 392.6 189.9C393.2 190.2 393.8 190.2 394.4 189.9C395.7 189.3 396 187.4 396.1 186C396.2 182.7 395.6 179.5 394.5 176.4C394.3 176 394.5 175.6 394.9 175.4C394.9 175.5 395 175.5 395.1 175.5Z" fill="#231F20"/>
<path d="M269.6 352.4C268.9 344.4 243 355.3 243 355.3C243 355.3 250.3 338.7 246.4 335.6C242.5 332.5 229.3 352.6 229.3 352.6C229.3 352.6 210.9 355.5 195.8 355.3L193.5 392.4C230.7 389.7 254.8 388.7 255.9 386.3C258.1 381.5 270.3 360.3 269.6 352.4Z" fill="white"/>
<path d="M193.4 393.1C193 393.1 192.7 392.8 192.7 392.4L195 355.2C195 354.8 195.3 354.6 195.7 354.6C209.5 354.8 226.3 352.4 228.8 352C230.5 349.4 240 335.5 244.9 334.7C245.6 334.6 246.2 334.7 246.8 335.1C250.4 337.9 246.1 349.7 244.2 354.1C249 352.2 263.7 346.8 268.6 349.7C269.6 350.3 270.2 351.3 270.3 352.4C270.9 359.2 262.8 374.5 258.5 382.8C257.6 384.5 256.9 385.8 256.5 386.7C255.5 388.9 244.9 389.7 214.3 391.8C207.9 392.1 201 392.5 193.4 393.1ZM196.4 355.9L194.2 391.6C201.4 391.1 208.1 390.6 214.3 390.2C236.5 388.7 254.1 387.5 255.3 385.9C255.7 385.1 256.4 383.7 257.3 382C261.3 374.5 269.5 358.8 268.9 352.4C268.9 351.7 268.5 351.1 267.9 350.8C263.7 348.3 248.7 353.6 243.3 355.9C243 356 242.7 355.9 242.5 355.7C242.3 355.5 242.3 355.2 242.4 354.9C245.2 348.7 248.5 338 246 336C245.8 335.8 245.5 335.8 245.2 335.9C241.4 336.5 232.8 348.4 229.9 352.9C229.8 353.1 229.6 353.2 229.4 353.2C229.2 353.2 211.2 356.1 196.4 355.9Z" fill="#231F20"/>
</g>
<defs>
<clipPath id="clip0_93_7518">
<rect width="500" height="500" fill="white"/>
</clipPath>
</defs>
</svg>
