<svg width="10" height="10" viewBox="0 0 10 10" fill="none" xmlns="http://www.w3.org/2000/svg">
<g clip-path="url(#clip0_150_3558)">
<rect width="9.6" height="9.6" transform="translate(0.400024 0.199951)" fill="white" fill-opacity="0.01"/>
<path d="M4.9291 7.16172L1.9316 3.73547C1.57785 3.33234 1.86535 2.69922 2.40223 2.69922H8.39723C8.51738 2.69912 8.63501 2.73365 8.73605 2.79868C8.83708 2.86372 8.91722 2.95649 8.96688 3.0659C9.01654 3.17531 9.03361 3.29672 9.01605 3.41558C8.99849 3.53444 8.94703 3.64572 8.86785 3.73609L5.87035 7.16109C5.81169 7.22822 5.73934 7.28203 5.65817 7.31889C5.577 7.35576 5.48888 7.37483 5.39973 7.37483C5.31057 7.37483 5.22246 7.35576 5.14128 7.31889C5.06011 7.28203 4.98776 7.22822 4.9291 7.16109V7.16172Z" fill="white"/>
</g>
<defs>
<clipPath id="clip0_150_3558">
<rect width="9.6" height="9.6" fill="white" transform="translate(0.400024 0.199951)"/>
</clipPath>
</defs>
</svg>
